<?xml version="1.0" standalone="no"?><!DOCTYPE svg PUBLIC "-//W3C//DTD SVG 1.1//EN" "http://www.w3.org/Graphics/SVG/1.1/DTD/svg11.dtd"><svg height="1024" node-id="1" sillyvg="true" template-height="1024" template-width="1024" version="1.1" viewBox="0 0 1024 1024" width="1024" xmlns="http://www.w3.org/2000/svg" xmlns:xlink="http://www.w3.org/1999/xlink"><defs node-id="28"></defs><g node-id="30"><g node-id="31"><path d="M 931.43 478.54 L 933.24 482.24 L 934.44 485.87 L 935.07 489.49 L 935.16 493.13 L 934.70 496.83 L 933.66 500.63 L 929.37 500.05 L 925.37 499.95 L 921.65 500.28 L 918.15 501.03 L 914.84 502.19 L 911.71 503.76 L 909.95 505.03 L 908.67 506.50 L 907.81 508.17 L 907.34 510.10 L 907.12 512.92 L 907.35 515.31 L 907.96 517.34 L 908.93 519.09 L 910.29 520.61 L 912.07 521.90 L 913.75 526.54 L 915.88 530.96 L 918.48 535.18 L 921.57 539.22 L 925.18 543.08 L 929.34 546.79 L 934.11 550.33 L 935.72 551.23 L 937.41 551.77 L 939.21 551.95 L 941.16 551.77 L 944.54 550.80 L 947.23 549.44 L 949.35 547.83 L 950.48 546.46 L 950.93 545.26 L 950.86 544.14 L 950.25 543.00 L 948.94 541.76 L 946.60 540.37 L 935.36 534.83 L 934.00 533.96 L 933.29 532.98 L 933.08 531.84 L 933.39 530.41 L 934.20 528.41 L 935.09 526.65 L 936.10 525.71 L 937.27 525.36 L 938.72 525.58 L 940.62 526.56 L 945.27 530.11 L 949.15 533.82 L 952.35 537.72 L 954.92 541.81 L 956.89 546.12 L 958.29 550.69 L 959.12 555.55 L 959.36 560.77 L 959.62 561.84 L 960.25 562.75 L 961.17 563.41 L 962.34 563.76 L 963.58 563.73 L 964.67 563.33 L 965.56 562.62 L 966.15 561.65 L 967.19 557.31 L 967.69 553.20 L 967.68 549.27 L 967.18 545.50 L 966.20 541.84 L 964.73 538.27 L 962.73 534.76 L 960.17 531.30 L 958.49 528.93 L 957.86 527.44 L 957.86 526.50 L 958.28 525.88 L 959.21 525.47 L 961.01 525.37 L 964.18 525.84 L 966.53 526.70 L 968.57 528.12 L 970.35 530.15 L 971.79 532.51 L 973.03 535.27 L 974.08 538.46 L 975.22 543.42 L 976.00 548.61 L 976.50 553.79 L 976.78 558.43 L 977.03 565.74 L 977.31 568.16 L 977.87 569.66 L 978.61 570.53 L 979.55 570.96 L 980.78 570.96 L 982.46 570.41 L 984.80 569.04 L 994.44 562.37 L 996.06 561.56 L 997.36 561.47 L 998.51 561.99 L 999.61 563.26 L 1001.55 565.80 L 1003.70 567.79 L 1006.09 569.28 L 1008.75 570.31 L 1011.75 570.88 L 1005.13 573.85 L 998.86 576.06 L 992.90 577.59 L 987.23 578.49 L 981.80 578.79 L 976.58 578.54 L 971.53 577.73 L 966.62 576.38 L 961.83 574.48 L 957.12 571.99 L 952.49 568.90 L 947.90 565.13 L 943.35 560.65 L 938.84 555.39 L 937.75 554.42 L 936.41 553.83 L 934.94 553.67 L 933.43 553.96 L 932.11 554.70 L 931.18 555.72 L 930.66 556.98 L 930.63 558.36 L 933.37 578.92 L 935.53 599.46 L 937.10 619.98 L 938.07 640.49 L 938.47 660.99 L 938.28 681.49 L 937.50 702.01 L 936.94 707.08 L 935.97 711.28 L 934.65 714.73 L 933.02 717.55 L 930.90 720.12 L 928.50 722.21 L 925.80 723.84 L 922.77 725.03 L 919.60 725.80 L 916.17 726.25 L 912.45 726.35 L 908.40 726.08 L 903.11 725.29 L 897.52 724.05 L 891.60 722.31 L 882.84 719.14 L 874.00 715.34 L 865.37 711.13 L 857.29 706.80 L 849.61 702.34 L 843.13 698.31 L 837.24 694.40 L 833.18 691.49 L 832.19 690.93 L 831.09 690.62 L 829.95 690.54 L 828.80 690.71 L 827.72 691.13 L 826.82 691.75 L 826.09 692.55 L 825.59 693.49 L 820.87 705.73 L 815.77 717.58 L 810.29 729.07 L 804.42 740.20 L 798.16 750.98 L 791.52 761.43 L 784.43 771.69 L 777.02 781.61 L 769.28 791.21 L 761.20 800.49 L 752.78 809.47 L 744.02 818.13 L 733.12 828.12 L 721.82 837.66 L 710.11 846.78 L 697.99 855.46 L 685.44 863.73 L 672.63 871.50 L 659.50 878.84 L 646.05 885.76 L 632.27 892.27 L 618.13 898.35 L 603.87 903.95 L 589.38 909.12 L 574.65 913.88 L 559.68 918.22 L 544.47 922.13 L 529.19 925.59 L 513.79 928.62 L 498.26 931.24 L 482.60 933.43 L 466.79 935.20 L 450.96 936.54 L 435.12 937.46 L 419.26 937.96 L 403.38 938.04 L 387.47 937.70 L 371.55 936.93 L 355.74 935.76 L 340.02 934.17 L 324.39 932.17 L 308.85 929.75 L 293.33 926.90 L 278.02 923.65 L 262.91 920.00 L 248.01 915.95 L 233.29 911.49 L 232.70 911.39 L 232.13 911.47 L 231.61 911.70 L 231.19 912.09 L 230.94 912.58 L 230.88 913.10 L 231.01 913.60 L 231.33 914.06 L 274.70 961.36 L 275.69 962.81 L 275.96 963.93 L 275.70 964.89 L 274.87 965.78 L 273.18 966.66 L 220.44 986.41 L 213.79 981.59 L 208.05 976.69 L 203.12 971.71 L 198.95 966.63 L 195.48 961.45 L 192.67 956.16 L 190.47 950.72 L 188.88 945.11 L 187.88 939.31 L 187.47 933.27 L 187.68 926.95 L 188.55 920.32 L 190.10 913.34 L 190.32 911.82 L 190.15 910.54 L 189.59 909.43 L 188.63 908.44 L 187.15 907.56 L 185.66 907.20 L 184.02 907.26 L 182.16 907.80 L 11.17 932.45 L 7.67 932.70 L 5.07 932.43 L 3.16 931.77 L 1.76 930.79 L 0.78 929.47 L 0.18 927.75 L 0.00 925.48 L 0.37 922.50 L 2.67 912.79 L 5.38 903.53 L 8.49 894.70 L 12.00 886.28 L 15.98 878.00 L 20.31 870.02 L 25.02 862.34 L 30.09 854.93 L 35.50 847.76 L 41.23 840.77 L 47.30 833.97 L 53.72 827.35 L 62.60 818.87 L 72.01 810.57 L 81.96 802.44 L 92.15 794.61 L 102.79 786.83 L 113.89 779.09 L 115.42 777.70 L 116.31 776.20 L 116.63 774.52 L 116.39 772.58 L 111.89 755.92 L 107.83 739.12 L 104.20 722.18 L 101.00 705.09 L 98.24 687.85 L 95.36 666.25 L 93.08 644.54 L 91.39 622.71 L 90.29 600.75 L 89.75 578.78 L 89.71 556.82 L 90.18 534.87 L 91.16 512.91 L 92.60 490.96 L 94.46 469.15 L 96.74 447.48 L 99.43 425.94 L 102.52 404.41 L 105.93 383.15 L 109.66 362.18 L 113.71 341.48 L 114.34 339.42 L 115.05 338.36 L 115.82 337.93 L 116.72 337.99 L 117.93 338.64 L 119.60 340.28 L 178.68 409.89 L 179.46 410.57 L 180.41 410.98 L 181.45 411.12 L 182.53 410.97 L 183.51 410.52 L 184.25 409.85 L 184.74 409.01 L 184.92 408.05 L 185.37 212.77 L 185.49 212.12 L 185.82 211.55 L 186.33 211.11 L 186.98 210.81 L 187.71 210.71 L 188.41 210.81 L 189.05 211.10 L 189.56 211.56 L 247.75 283.59 L 248.76 284.47 L 250.00 285.01 L 251.36 285.17 L 252.75 284.93 L 253.97 284.30 L 254.84 283.39 L 255.35 282.27 L 255.42 281.02 L 224.99 4.80 L 225.02 3.66 L 225.38 2.58 L 226.03 1.62 L 226.96 0.82 L 228.08 0.28 L 229.30 0.02 L 230.55 0.06 L 231.78 0.39 L 243.74 5.47 L 255.50 11.15 L 267.09 17.41 L 278.51 24.28 L 289.60 31.61 L 300.50 39.40 L 311.21 47.68 L 321.74 56.45 L 331.95 65.53 L 341.94 74.97 L 351.72 84.75 L 361.29 94.89 L 373.62 108.78 L 385.50 123.02 L 396.95 137.64 L 407.99 152.57 L 418.52 167.58 L 428.55 182.69 L 438.24 198.03 L 447.35 213.15 L 455.90 228.07 L 464.16 243.17 L 471.78 257.74 L 478.80 271.78 L 479.59 272.86 L 480.72 273.62 L 482.05 274.00 L 483.50 273.95 L 484.86 273.46 L 485.89 272.64 L 486.58 271.54 L 486.83 270.26 L 486.65 174.55 L 486.83 173.55 L 487.35 172.68 L 488.13 172.01 L 489.16 171.59 L 490.29 171.49 L 491.35 171.72 L 492.28 172.24 L 492.99 173.02 L 596.42 338.91 L 597.04 339.63 L 597.87 340.10 L 598.82 340.30 L 599.83 340.20 L 600.75 339.80 L 601.43 339.17 L 601.85 338.37 L 601.95 337.47 L 597.76 268.49 L 597.98 267.65 L 598.67 267.03 L 599.59 266.87 L 600.43 267.21 L 615.71 278.57 L 631.03 290.47 L 646.38 302.94 L 661.44 315.75 L 676.30 329.03 L 690.96 342.77 L 705.24 356.90 L 719.10 371.41 L 732.52 386.31 L 742.29 397.77 L 751.70 409.39 L 760.74 421.18 L 769.43 433.15 L 777.79 445.39 L 785.68 457.75 L 793.09 470.25 L 800.05 482.88 L 806.56 495.78 L 812.51 508.78 L 817.89 521.88 L 822.71 535.10 L 826.17 545.84 L 829.20 556.63 L 831.81 567.49 L 834.01 578.41 L 835.79 589.41 L 837.12 600.45 L 837.97 611.57 L 838.34 622.76 L 838.23 634.03 L 837.64 645.40 L 837.71 647.44 L 838.27 649.22 L 839.32 650.83 L 840.94 652.30 L 901.09 697.03 L 901.72 697.36 L 902.42 697.52 L 903.13 697.50 L 903.83 697.29 L 904.44 696.92 L 904.90 696.42 L 905.19 695.83 L 905.28 695.18 L 897.61 532.82 L 897.33 531.15 L 896.69 529.67 L 895.67 528.33 L 894.22 527.12 L 889.49 523.70 L 885.66 520.44 L 882.62 517.31 L 880.26 514.31 L 878.17 510.92 L 876.71 507.72 L 875.81 504.67 L 875.40 501.73 L 875.43 498.71 L 875.89 495.85 L 876.75 493.09 L 878.04 490.43 L 880.27 487.17 L 883.10 484.18 L 886.57 481.43 L 890.38 479.15 L 894.63 477.26 L 899.38 475.77 L 904.26 474.80 L 909.41 474.36 L 914.87 474.46 L 920.28 475.15 L 925.79 476.50 L 931.43 478.54 Z M 286.30 121.55 L 504.32 381.23 L 505.82 382.73 L 506.92 383.34 L 507.75 383.39 L 508.47 383.00 L 509.15 382.02 L 509.76 380.10 L 521.28 327.59 L 521.64 326.58 L 522.31 325.74 L 523.22 325.11 L 524.33 324.73 L 525.51 324.67 L 526.63 324.91 L 527.62 325.44 L 528.41 326.22 L 621.40 446.27 L 621.99 446.85 L 622.71 447.28 L 623.53 447.53 L 624.41 447.58 L 625.27 447.43 L 626.04 447.09 L 626.70 446.59 L 627.21 445.94 L 659.15 390.78 L 660.29 389.25 L 661.48 388.42 L 662.78 388.14 L 664.28 388.40 L 666.11 389.34 L 742.15 440.32 L 744.83 441.94 L 746.12 442.36 L 746.68 442.23 L 746.88 441.74 L 746.62 440.53 L 745.36 437.91 L 736.79 423.23 L 727.72 408.94 L 718.14 395.01 L 708.04 381.45 L 697.42 368.25 L 686.27 355.39 L 674.57 342.87 L 662.32 330.69 L 649.51 318.84 L 636.11 307.31 L 622.12 296.11 L 620.45 295.10 L 619.04 294.76 L 617.78 294.95 L 616.56 295.67 L 615.34 297.08 L 613.77 299.91 L 612.85 302.68 L 612.51 305.44 L 612.73 308.24 L 613.55 311.13 L 614.24 313.51 L 614.62 315.91 L 614.71 318.36 L 612.03 387.89 L 611.91 388.55 L 611.57 389.13 L 611.04 389.57 L 610.36 389.85 L 609.61 389.90 L 608.91 389.74 L 608.30 389.38 L 607.84 388.85 L 505.84 228.26 L 505.12 227.46 L 504.16 226.92 L 503.08 226.68 L 501.93 226.77 L 500.86 227.20 L 500.05 227.88 L 499.52 228.77 L 499.32 229.79 L 498.79 327.99 L 498.56 331.28 L 498.14 332.61 L 497.68 332.99 L 497.10 332.81 L 496.13 331.71 L 494.50 328.71 L 485.04 309.21 L 475.11 290.05 L 464.71 271.22 L 453.84 252.71 L 442.50 234.52 L 430.67 216.64 L 418.36 199.07 L 405.57 181.80 L 392.28 164.82 L 378.49 148.13 L 364.20 131.72 L 349.39 115.60 L 334.06 99.76 L 318.20 84.19 L 301.80 68.90 L 284.85 53.87 L 267.34 39.12 L 249.27 24.64 L 248.54 24.24 L 247.72 24.05 L 246.89 24.07 L 246.07 24.31 L 245.36 24.75 L 244.85 25.34 L 244.53 26.04 L 244.45 26.80 L 271.76 333.69 L 271.65 334.77 L 271.16 335.73 L 270.38 336.49 L 269.30 337.00 L 268.10 337.15 L 266.96 336.96 L 265.94 336.43 L 265.15 335.62 L 210.80 257.97 L 209.89 257.08 L 208.74 256.49 L 207.45 256.25 L 206.10 256.38 L 204.86 256.89 L 203.89 257.68 L 203.23 258.71 L 202.95 259.90 L 195.54 433.02 L 195.14 437.58 L 194.47 440.63 L 193.63 442.55 L 192.69 443.67 L 191.66 444.24 L 190.46 444.34 L 188.98 443.91 L 187.06 442.75 L 184.57 440.54 L 181.35 436.87 L 129.06 371.43 L 128.01 370.44 L 126.71 369.78 L 125.26 369.49 L 123.72 369.59 L 122.27 370.10 L 121.09 370.93 L 120.20 372.04 L 119.69 373.36 L 116.27 390.43 L 113.43 407.52 L 111.15 424.64 L 109.43 441.78 L 108.27 458.96 L 107.67 476.19 L 107.63 493.47 L 108.16 510.82 L 109.25 528.25 L 109.48 529.11 L 110.01 529.84 L 110.77 530.34 L 111.74 530.59 L 112.74 530.52 L 113.60 530.15 L 114.28 529.54 L 114.69 528.73 L 136.11 456.62 L 136.84 454.90 L 137.71 453.81 L 138.71 453.21 L 139.91 453.01 L 141.41 453.27 L 143.34 454.13 L 200.09 486.57 L 201.06 486.95 L 202.04 487.01 L 203.07 486.76 L 203.97 486.20 L 204.57 485.48 L 204.91 484.57 L 229.90 332.17 L 230.09 331.54 L 230.48 331.01 L 231.02 330.62 L 231.71 330.38 L 232.45 330.35 L 233.16 330.52 L 233.78 330.86 L 234.27 331.36 L 279.16 392.55 L 280.73 394.41 L 281.69 395.10 L 282.30 395.15 L 282.76 394.78 L 283.12 393.72 L 283.27 391.42 L 280.50 123.32 L 280.65 122.41 L 281.09 121.60 L 281.77 120.96 L 282.68 120.53 L 283.70 120.37 L 284.68 120.51 L 285.57 120.91 L 286.30 121.55 L 286.30 121.55 Z M 543.59 606.29 L 540.07 604.87 L 536.80 603.05 L 533.76 600.79 L 530.94 598.09 L 527.60 594.07 L 524.53 589.44 L 521.74 584.14 L 519.34 578.64 L 517.14 572.73 L 515.16 566.40 L 512.60 556.75 L 510.38 546.83 L 506.58 527.37 L 504.75 518.11 L 502.93 509.98 L 501.53 504.70 L 500.09 500.28 L 498.61 496.61 L 498.30 496.02 L 497.78 495.59 L 497.13 495.37 L 496.39 495.38 L 495.71 495.65 L 495.23 496.09 L 494.96 496.68 L 494.95 497.33 L 495.28 502.12 L 496.02 509.44 L 497.04 517.46 L 498.52 527.11 L 500.35 537.12 L 502.69 547.89 L 505.47 558.69 L 508.77 569.36 L 511.30 576.36 L 514.05 582.93 L 517.01 589.08 L 520.37 595.01 L 523.91 600.17 L 527.64 604.62 L 530.78 607.66 L 534.03 610.14 L 537.40 612.09 L 540.91 613.56 L 543.82 614.34 L 546.86 614.73 L 550.05 614.73 L 553.44 614.31 L 557.06 613.44 L 561.21 611.86 L 564.91 609.94 L 568.22 607.67 L 571.17 605.06 L 573.82 602.10 L 576.19 598.87 L 578.27 595.32 L 580.08 591.44 L 582.01 586.09 L 583.54 580.32 L 584.65 574.10 L 585.34 567.81 L 585.71 561.29 L 585.73 554.53 L 585.24 544.39 L 584.20 534.24 L 582.70 524.21 L 580.91 514.72 L 578.83 505.54 L 576.72 497.47 L 574.48 489.91 L 572.50 484.00 L 572.03 483.31 L 571.33 482.82 L 570.50 482.58 L 569.58 482.62 L 568.74 482.96 L 568.12 483.51 L 567.75 484.23 L 567.68 485.05 L 569.49 494.16 L 572.20 509.06 L 573.59 517.89 L 574.94 527.74 L 576.05 537.83 L 576.85 548.18 L 577.22 558.52 L 577.06 568.38 L 576.59 574.88 L 575.79 580.84 L 574.70 586.30 L 573.56 590.37 L 572.21 593.97 L 570.66 597.14 L 568.92 599.93 L 566.81 602.48 L 564.44 604.53 L 561.80 606.12 L 558.83 607.27 L 555.78 607.88 L 552.28 607.97 L 548.25 607.48 L 543.59 606.29 Z M 438.19 626.93 L 444.53 629.10 L 450.07 630.46 L 454.91 631.12 L 459.15 631.17 L 463.51 630.65 L 467.35 629.61 L 470.75 628.08 L 473.76 626.07 L 476.48 623.61 L 478.91 620.76 L 481.08 617.47 L 482.97 613.69 L 484.95 608.44 L 486.54 602.60 L 487.72 596.11 L 488.47 589.54 L 488.89 582.64 L 488.97 575.39 L 488.57 564.51 L 487.65 553.61 L 486.31 542.85 L 484.72 532.84 L 482.90 523.24 L 481.13 515.16 L 479.28 507.76 L 477.81 502.63 L 477.17 501.73 L 476.25 501.11 L 475.15 500.81 L 473.95 500.89 L 472.85 501.34 L 472.05 502.07 L 471.57 503.01 L 471.48 504.08 L 474.65 517.09 L 476.32 525.02 L 478.01 534.12 L 479.50 543.52 L 480.75 553.45 L 481.63 563.46 L 482.04 573.35 L 482.00 579.94 L 481.67 586.18 L 481.04 592.11 L 480.03 597.98 L 478.65 603.26 L 476.93 608.00 L 475.28 611.43 L 473.39 614.43 L 471.26 617.04 L 468.89 619.30 L 464.91 622.23 L 461.32 624.32 L 458.07 625.70 L 455.10 626.48 L 451.97 626.79 L 449.04 626.58 L 446.27 625.89 L 443.62 624.71 L 441.17 623.14 L 438.78 621.17 L 436.46 618.77 L 434.19 615.89 L 431.54 611.84 L 428.99 607.20 L 426.56 601.92 L 423.38 593.71 L 420.49 584.71 L 417.96 575.49 L 415.73 566.16 L 413.74 556.87 L 412.03 548.16 L 409.14 532.62 L 407.86 526.05 L 406.82 521.44 L 405.97 518.55 L 405.31 517.10 L 404.82 516.52 L 403.18 515.80 L 402.14 515.73 L 401.46 516.08 L 400.99 516.90 L 400.80 518.45 L 401.11 529.10 L 401.97 539.58 L 403.37 549.90 L 405.31 560.08 L 407.79 570.13 L 410.82 580.06 L 414.39 589.89 L 418.53 599.64 L 423.25 609.30 L 428.55 618.90 L 430.39 621.47 L 432.58 623.65 L 435.17 625.47 L 438.19 626.93 Z M 777.67 541.40 L 776.70 538.75 L 775.30 536.26 L 773.45 533.89 L 771.09 531.64 L 767.58 529.10 L 763.34 526.78 L 758.25 524.72 L 752.99 523.14 L 747.09 521.87 L 740.50 520.94 L 733.88 520.43 L 726.79 520.30 L 719.20 520.58 L 711.64 521.25 L 703.81 522.36 L 695.69 523.93 L 687.66 525.91 L 680.14 528.17 L 673.10 530.69 L 666.21 533.59 L 659.98 536.64 L 654.38 539.83 L 648.99 543.40 L 644.41 546.96 L 640.55 550.54 L 637.87 553.51 L 635.69 556.40 L 633.98 559.22 L 632.69 561.99 L 631.76 564.95 L 631.32 567.81 L 631.35 570.61 L 631.84 573.39 L 632.81 576.03 L 634.21 578.53 L 636.07 580.89 L 638.42 583.15 L 641.93 585.69 L 646.17 588.00 L 651.26 590.07 L 656.53 591.64 L 662.42 592.92 L 669.01 593.85 L 675.64 594.36 L 682.73 594.49 L 690.31 594.21 L 697.87 593.53 L 705.70 592.42 L 713.82 590.86 L 721.86 588.88 L 729.37 586.62 L 736.41 584.10 L 743.30 581.20 L 749.53 578.14 L 755.14 574.96 L 760.52 571.39 L 765.10 567.82 L 768.96 564.25 L 771.65 561.28 L 773.82 558.39 L 775.53 555.57 L 776.82 552.79 L 777.76 549.84 L 778.19 546.98 L 778.16 544.18 L 777.67 541.40 L 777.67 541.40 Z M 351.48 626.99 L 350.57 624.49 L 349.26 622.11 L 347.51 619.82 L 345.27 617.61 L 342.49 615.48 L 338.89 613.33 L 334.63 611.38 L 329.61 609.64 L 323.74 608.14 L 318.57 607.22 L 313.04 606.55 L 307.13 606.15 L 301.21 606.05 L 295.07 606.22 L 288.70 606.67 L 279.15 607.85 L 269.42 609.66 L 261.36 611.63 L 253.82 613.88 L 246.76 616.39 L 239.84 619.27 L 233.59 622.31 L 227.96 625.48 L 222.55 629.02 L 217.94 632.57 L 214.07 636.12 L 211.36 639.07 L 209.17 641.94 L 207.45 644.75 L 206.14 647.50 L 205.19 650.44 L 204.74 653.28 L 204.76 656.07 L 205.24 658.82 L 206.15 661.33 L 207.46 663.71 L 209.21 666.00 L 211.44 668.21 L 214.23 670.34 L 217.83 672.49 L 222.09 674.44 L 227.11 676.18 L 232.98 677.67 L 238.15 678.60 L 243.68 679.27 L 249.59 679.66 L 255.51 679.77 L 261.65 679.60 L 268.02 679.15 L 277.56 677.97 L 287.30 676.15 L 295.36 674.18 L 302.90 671.94 L 309.96 669.43 L 316.88 666.54 L 323.13 663.51 L 328.76 660.34 L 334.17 656.79 L 338.78 653.25 L 342.65 649.70 L 345.36 646.75 L 347.55 643.87 L 349.27 641.07 L 350.58 638.31 L 351.53 635.37 L 351.98 632.53 L 351.96 629.75 L 351.48 626.99 L 351.48 626.99 Z M 424.27 728.90 L 403.66 731.63 L 401.77 732.10 L 400.39 732.92 L 399.39 734.11 L 398.75 735.73 L 396.68 745.27 L 395.16 754.73 L 394.18 764.12 L 393.73 773.46 L 393.82 782.76 L 394.43 792.03 L 395.57 801.30 L 397.24 810.58 L 399.46 819.87 L 402.23 829.19 L 402.86 830.62 L 403.74 831.88 L 404.89 832.99 L 406.93 834.24 L 409.37 834.96 L 411.93 835.04 L 414.34 834.51 L 415.84 833.82 L 417.15 832.91 L 418.29 831.76 L 430.57 816.34 L 442.33 800.71 L 453.60 784.87 L 464.37 768.81 L 474.66 752.54 L 484.46 736.04 L 493.78 719.31 L 502.63 702.35 L 511.01 685.14 L 511.59 683.41 L 511.57 682.06 L 511.04 680.94 L 509.95 679.96 L 508.07 679.12 L 407.67 647.32 L 405.66 646.87 L 404.20 646.91 L 403.13 647.32 L 402.34 648.07 L 401.79 649.25 L 401.51 651.02 L 398.30 708.11 L 398.40 709.91 L 398.90 711.40 L 399.78 712.66 L 401.10 713.73 L 402.94 714.61 L 425.07 722.48 L 428.98 724.10 L 430.74 725.24 L 431.31 726.04 L 431.24 726.68 L 430.50 727.35 L 428.49 728.11 L 424.27 728.90 Z M 119.60 792.90 L 111.37 798.27 L 103.31 804.19 L 95.41 810.68 L 87.85 817.57 L 80.56 824.85 L 73.54 832.53 L 66.86 840.52 L 60.57 848.73 L 54.65 857.16 L 49.10 865.83 L 44.03 874.53 L 39.44 883.27 L 35.24 892.20 L 31.63 900.96 L 28.57 909.57 L 28.56 910.57 L 29.10 911.46 L 30.04 912.00 L 31.16 912.06 L 183.67 881.54 L 184.74 881.02 L 185.36 880.12 L 185.40 879.05 L 184.83 878.09 L 176.26 869.91 L 168.26 861.48 L 160.82 852.80 L 153.91 843.87 L 147.52 834.68 L 141.64 825.21 L 136.27 815.47 L 131.39 805.42 L 127.01 795.07 L 126.51 794.16 L 125.80 793.38 L 124.93 792.77 L 123.90 792.34 L 122.79 792.14 L 121.68 792.17 L 120.60 792.42 L 119.60 792.90 L 119.60 792.90 Z" fill="#ffc300" fill-rule="nonzero" group-id="1,2" id="形状" node-id="7" stroke="none" target-height="986.38995" target-width="1011.75" target-x="0" target-y="0.02"></path><path d="M 286.30 121.55 L 285.57 120.91 L 284.68 120.51 L 283.70 120.37 L 282.68 120.53 L 281.77 120.96 L 281.09 121.60 L 280.65 122.41 L 280.50 123.32 L 283.27 391.42 L 283.12 393.72 L 282.76 394.78 L 282.30 395.15 L 281.69 395.10 L 280.73 394.41 L 279.16 392.55 L 234.27 331.36 L 233.78 330.86 L 233.16 330.52 L 232.45 330.35 L 231.71 330.38 L 231.02 330.62 L 230.48 331.01 L 230.09 331.54 L 229.90 332.17 L 204.91 484.57 L 204.57 485.48 L 203.97 486.20 L 203.07 486.76 L 202.04 487.01 L 201.06 486.95 L 200.09 486.57 L 143.34 454.13 L 141.41 453.27 L 139.91 453.01 L 138.71 453.21 L 137.71 453.81 L 136.84 454.90 L 136.11 456.62 L 114.69 528.73 L 114.28 529.54 L 113.60 530.15 L 112.74 530.52 L 111.74 530.59 L 110.77 530.34 L 110.01 529.83 L 109.48 529.11 L 109.25 528.25 L 108.16 510.82 L 107.63 493.47 L 107.67 476.19 L 108.27 458.96 L 109.43 441.78 L 111.15 424.64 L 113.43 407.52 L 116.27 390.43 L 119.69 373.36 L 120.20 372.04 L 121.09 370.93 L 122.27 370.10 L 123.72 369.59 L 125.26 369.49 L 126.71 369.78 L 128.01 370.44 L 129.06 371.43 L 181.35 436.87 L 184.57 440.54 L 187.06 442.75 L 188.98 443.91 L 190.46 444.34 L 191.66 444.24 L 192.69 443.67 L 193.63 442.55 L 194.47 440.62 L 195.14 437.58 L 195.54 433.02 L 202.95 259.90 L 203.23 258.71 L 203.89 257.68 L 204.86 256.89 L 206.10 256.38 L 207.45 256.25 L 208.74 256.49 L 209.89 257.08 L 210.80 257.97 L 265.15 335.62 L 265.94 336.43 L 266.96 336.96 L 268.10 337.15 L 269.30 337.00 L 270.38 336.49 L 271.16 335.73 L 271.65 334.77 L 271.76 333.69 L 244.45 26.80 L 244.53 26.04 L 244.85 25.34 L 245.36 24.75 L 246.07 24.31 L 246.89 24.07 L 247.72 24.05 L 248.54 24.24 L 249.27 24.64 L 267.34 39.12 L 284.85 53.87 L 301.80 68.90 L 318.20 84.19 L 334.06 99.76 L 349.39 115.60 L 364.20 131.72 L 378.49 148.13 L 392.28 164.82 L 405.57 181.80 L 418.36 199.07 L 430.67 216.64 L 442.50 234.52 L 453.84 252.71 L 464.71 271.22 L 475.11 290.05 L 485.04 309.21 L 494.50 328.71 L 496.13 331.71 L 497.10 332.81 L 497.68 332.99 L 498.14 332.61 L 498.56 331.28 L 498.79 327.99 L 499.32 229.79 L 499.52 228.77 L 500.05 227.88 L 500.86 227.20 L 501.93 226.77 L 503.08 226.68 L 504.16 226.92 L 505.12 227.46 L 505.84 228.26 L 607.84 388.85 L 608.30 389.38 L 608.91 389.74 L 609.61 389.90 L 610.36 389.85 L 611.04 389.57 L 611.57 389.13 L 611.91 388.55 L 612.03 387.89 L 614.71 318.36 L 614.62 315.91 L 614.24 313.51 L 613.55 311.13 L 612.73 308.24 L 612.51 305.44 L 612.85 302.68 L 613.77 299.91 L 615.34 297.08 L 616.56 295.67 L 617.78 294.95 L 619.04 294.76 L 620.45 295.10 L 622.12 296.11 L 636.11 307.31 L 649.51 318.84 L 662.32 330.69 L 674.57 342.87 L 686.27 355.39 L 697.42 368.25 L 708.04 381.45 L 718.14 395.01 L 727.72 408.94 L 736.79 423.23 L 745.36 437.91 L 746.62 440.53 L 746.88 441.74 L 746.68 442.24 L 746.12 442.36 L 744.83 441.94 L 742.15 440.32 L 666.11 389.34 L 664.28 388.40 L 662.78 388.14 L 661.48 388.42 L 660.29 389.25 L 659.15 390.78 L 627.21 445.94 L 626.70 446.59 L 626.05 447.09 L 625.27 447.43 L 624.41 447.58 L 623.53 447.53 L 622.71 447.28 L 621.99 446.85 L 621.40 446.27 L 528.41 326.22 L 527.62 325.44 L 526.63 324.91 L 525.51 324.67 L 524.33 324.73 L 523.22 325.11 L 522.31 325.74 L 521.64 326.58 L 521.28 327.59 L 509.76 380.10 L 509.15 382.02 L 508.47 383.00 L 507.75 383.39 L 506.92 383.34 L 505.82 382.73 L 504.32 381.23 L 286.30 121.55 Z" fill="#ff3900" fill-rule="nonzero" group-id="1,2" id="路径" node-id="8" stroke="none" target-height="506.54004" target-width="639.25" target-x="107.63" target-y="24.05"></path><path d="M 949.64 394.56 L 944.82 382.19 L 949.64 375.85 L 953.48 375.95 L 956.78 375.65 L 959.60 375.00 L 962.02 374.03 L 964.32 372.66 L 966.31 371.04 L 968.01 369.15 L 969.46 366.96 L 970.97 363.78 L 972.12 360.24 L 972.90 356.27 L 973.31 352.22 L 973.45 347.99 L 973.30 343.56 L 972.66 336.94 L 971.63 330.45 L 970.28 324.14 L 968.83 318.57 L 967.25 313.38 L 965.88 309.52 L 965.09 308.04 L 964.10 307.06 L 962.91 306.50 L 961.43 306.33 L 959.54 306.63 L 957.13 307.36 L 955.16 307.65 L 953.57 307.38 L 952.22 306.61 L 951.06 305.27 L 922.15 260.54 L 920.44 258.30 L 919.26 257.40 L 918.41 257.27 L 917.68 257.71 L 916.98 258.94 L 916.35 261.59 L 908.05 312.74 L 907.62 314.15 L 906.84 315.11 L 905.66 315.72 L 903.94 315.95 L 896.27 315.95 L 894.29 316.20 L 892.82 316.89 L 891.74 318.01 L 891.00 319.64 L 889.03 327.76 L 887.70 335.75 L 887.00 343.64 L 886.92 351.46 L 887.44 359.23 L 888.57 366.97 L 890.31 374.70 L 892.70 382.44 L 895.73 390.22 L 890.27 388.67 L 885.52 386.78 L 881.42 384.58 L 877.89 382.09 L 874.63 379.13 L 871.82 375.93 L 869.44 372.47 L 867.47 368.72 L 865.88 364.78 L 864.60 360.65 L 863.64 356.29 L 863.00 351.69 L 862.60 345.54 L 862.62 339.18 L 863.06 332.59 L 864.33 322.76 L 866.18 312.99 L 868.47 303.40 L 870.92 294.47 L 875.83 278.61 L 876.89 275.99 L 877.82 274.63 L 878.65 274.07 L 879.44 274.03 L 880.32 274.50 L 881.42 275.77 L 882.79 278.29 L 887.70 289.21 L 888.52 290.48 L 889.54 291.24 L 890.84 291.58 L 892.52 291.46 L 892.87 291.15 L 893.43 290.03 L 894.32 287.32 L 895.43 283.05 L 896.85 276.77 L 899.85 261.80 L 903.05 244.37 L 906.19 226.49 L 908.99 210.12 L 911.18 197.26 L 912.51 189.88 L 913.06 188.11 L 913.53 187.72 L 914.08 188.03 L 915.01 189.72 L 932.68 233.48 L 934.07 236.29 L 935.09 237.45 L 935.88 237.72 L 936.63 237.38 L 937.48 236.13 L 938.48 233.24 L 942.85 216.70 L 944.01 213.22 L 944.82 211.89 L 945.40 211.60 L 945.95 211.93 L 946.64 213.31 L 947.49 216.86 L 958.38 274.35 L 959.17 277.39 L 959.98 278.97 L 960.75 279.65 L 961.54 279.77 L 962.50 279.33 L 963.78 278.04 L 965.52 275.32 L 972.66 262.31 L 973.89 260.53 L 974.90 259.70 L 975.77 259.48 L 976.63 259.74 L 977.56 260.59 L 978.64 262.39 L 983.04 272.05 L 987.13 282.45 L 989.53 289.55 L 991.63 296.79 L 993.42 304.15 L 994.83 311.58 L 995.79 318.96 L 996.31 326.27 L 996.31 333.60 L 995.73 340.70 L 994.58 347.60 L 993.30 352.69 L 991.61 357.59 L 989.53 362.32 L 987.04 366.91 L 984.16 371.21 L 980.79 375.32 L 976.90 379.23 L 972.46 382.97 L 967.78 386.21 L 962.46 389.24 L 956.44 392.02 L 949.64 394.56 Z" fill="#ff3900" fill-rule="nonzero" group-id="1,2" id="路径" node-id="9" stroke="none" target-height="206.84" target-width="133.71002" target-x="862.6" target-y="187.72"></path><path d="M 949.64 375.85 L 951.34 371.89 L 952.44 367.84 L 952.96 363.66 L 952.89 359.31 L 952.20 354.74 L 950.84 349.90 L 948.73 344.75 L 945.80 339.23 L 944.43 337.33 L 942.80 335.66 L 940.88 334.22 L 938.77 333.08 L 936.49 332.24 L 934.01 331.69 L 931.47 331.51 L 929.01 331.67 L 926.60 332.16 L 924.28 332.99 L 922.15 334.11 L 920.19 335.54 L 915.70 339.70 L 912.18 343.67 L 909.51 347.47 L 907.57 351.12 L 906.30 354.65 L 905.61 358.12 L 905.49 361.56 L 905.92 365.01 L 906.93 368.52 L 908.57 372.13 L 910.91 375.88 L 914.05 379.79 L 918.11 383.89 L 923.22 388.21 L 920.28 396.24 L 895.73 390.22 L 892.70 382.44 L 890.31 374.70 L 888.57 366.97 L 887.44 359.23 L 886.92 351.46 L 887.00 343.64 L 887.70 335.75 L 889.03 327.76 L 891.00 319.64 L 891.74 318.01 L 892.82 316.89 L 894.29 316.20 L 896.27 315.95 L 903.94 315.95 L 905.66 315.72 L 906.84 315.11 L 907.62 314.15 L 908.05 312.74 L 916.35 261.59 L 916.98 258.94 L 917.68 257.71 L 918.41 257.27 L 919.26 257.40 L 920.44 258.30 L 922.15 260.54 L 951.06 305.27 L 952.22 306.61 L 953.57 307.38 L 955.16 307.65 L 957.13 307.36 L 959.54 306.63 L 961.43 306.33 L 962.91 306.50 L 964.10 307.06 L 965.09 308.04 L 965.88 309.52 L 967.25 313.38 L 968.83 318.57 L 970.28 324.14 L 971.63 330.45 L 972.66 336.94 L 973.30 343.56 L 973.45 347.99 L 973.31 352.22 L 972.90 356.27 L 972.12 360.24 L 970.97 363.78 L 969.46 366.96 L 968.01 369.15 L 966.31 371.04 L 964.32 372.66 L 962.02 374.03 L 959.60 375.00 L 956.78 375.65 L 953.48 375.95 L 949.64 375.85 Z" fill="#ff6e00" fill-rule="nonzero" group-id="1,2" id="路径" node-id="10" stroke="none" target-height="138.97" target-width="86.53003" target-x="886.92" target-y="257.27"></path><path d="M 949.64 375.85 L 944.82 382.19 L 923.22 388.21 L 918.11 383.89 L 914.05 379.79 L 910.91 375.88 L 908.57 372.13 L 906.93 368.52 L 905.92 365.01 L 905.49 361.56 L 905.61 358.12 L 906.30 354.65 L 907.57 351.12 L 909.51 347.47 L 912.18 343.67 L 915.70 339.70 L 920.19 335.54 L 922.15 334.11 L 924.28 332.99 L 926.60 332.16 L 929.01 331.67 L 931.47 331.51 L 934.01 331.69 L 936.49 332.24 L 938.77 333.08 L 940.88 334.22 L 942.80 335.66 L 944.43 337.33 L 945.80 339.23 L 948.73 344.75 L 950.84 349.90 L 952.20 354.74 L 952.89 359.31 L 952.96 363.66 L 952.44 367.84 L 951.34 371.89 L 949.64 375.85 Z" fill="#260e24" fill-rule="nonzero" group-id="1,2" id="路径" node-id="11" stroke="none" target-height="56.69998" target-width="47.47003" target-x="905.49" target-y="331.51"></path><path d="M 944.82 382.19 L 949.64 394.56 L 947.05 397.61 L 945.82 399.52 L 945.14 401.56 L 945.00 403.79 L 949.99 489.06 L 949.64 504.32 L 946.02 505.08 L 942.89 505.22 L 940.16 504.82 L 937.76 503.93 L 935.60 502.55 L 933.66 500.63 L 934.70 496.83 L 935.16 493.13 L 935.07 489.49 L 934.44 485.87 L 933.24 482.24 L 931.43 478.54 L 930.95 464.68 L 929.91 450.90 L 928.33 437.17 L 926.20 423.49 L 923.52 409.85 L 920.28 396.24 L 923.22 388.21 L 944.82 382.19 Z" fill="#00b7ad" fill-rule="nonzero" group-id="1,2" id="路径" node-id="12" stroke="none" target-height="123.03" target-width="29.70996" target-x="920.28" target-y="382.19"></path><path d="M 543.59 606.29 L 548.25 607.48 L 552.28 607.97 L 555.78 607.88 L 558.83 607.27 L 561.80 606.12 L 564.44 604.53 L 566.81 602.48 L 568.92 599.93 L 570.66 597.14 L 572.21 593.97 L 573.56 590.37 L 574.70 586.30 L 575.79 580.84 L 576.59 574.88 L 577.06 568.38 L 577.22 558.52 L 576.85 548.18 L 576.05 537.83 L 574.94 527.74 L 573.59 517.89 L 572.20 509.06 L 569.49 494.16 L 567.68 485.05 L 567.75 484.23 L 568.12 483.51 L 568.74 482.96 L 569.58 482.62 L 570.50 482.58 L 571.33 482.82 L 572.03 483.31 L 572.50 484.00 L 574.48 489.91 L 576.72 497.47 L 578.83 505.54 L 580.91 514.72 L 582.70 524.21 L 584.20 534.24 L 585.24 544.39 L 585.73 554.53 L 585.71 561.29 L 585.34 567.81 L 584.65 574.10 L 583.54 580.32 L 582.01 586.09 L 580.08 591.44 L 578.27 595.32 L 576.19 598.87 L 573.82 602.10 L 571.17 605.06 L 568.22 607.67 L 564.91 609.94 L 561.21 611.86 L 557.06 613.44 L 553.44 614.31 L 550.05 614.73 L 546.86 614.73 L 543.82 614.34 L 540.91 613.56 L 537.40 612.09 L 534.03 610.14 L 530.78 607.66 L 527.64 604.62 L 523.91 600.17 L 520.37 595.01 L 517.01 589.08 L 514.05 582.93 L 511.30 576.36 L 508.77 569.36 L 505.47 558.69 L 502.69 547.89 L 500.35 537.12 L 498.52 527.11 L 497.04 517.46 L 496.02 509.44 L 495.28 502.12 L 494.95 497.33 L 494.96 496.68 L 495.23 496.09 L 495.71 495.65 L 496.39 495.38 L 497.13 495.37 L 497.78 495.59 L 498.30 496.02 L 498.61 496.61 L 500.09 500.28 L 501.53 504.70 L 502.93 509.98 L 504.75 518.11 L 506.58 527.37 L 510.38 546.83 L 512.60 556.75 L 515.16 566.40 L 517.14 572.73 L 519.34 578.64 L 521.74 584.14 L 524.53 589.44 L 527.60 594.07 L 530.94 598.09 L 533.76 600.79 L 536.80 603.05 L 540.07 604.87 L 543.59 606.29 Z" fill="#260e24" fill-rule="nonzero" group-id="1,2" id="路径" node-id="13" stroke="none" target-height="132.15" target-width="90.77997" target-x="494.95" target-y="482.58"></path><path d="M 949.99 489.06 L 956.56 488.60 L 962.85 488.51 L 968.87 488.77 L 974.65 489.39 L 980.46 490.39 L 985.89 491.70 L 990.98 493.32 L 995.75 495.23 L 1000.41 497.55 L 1004.63 500.13 L 1008.45 502.97 L 1011.89 506.07 L 1015.02 509.51 L 1017.68 513.20 L 1019.89 517.14 L 1021.68 521.35 L 1022.95 525.71 L 1023.73 530.34 L 1023.99 535.28 L 1023.70 540.57 L 1022.89 545.68 L 1021.48 551.12 L 1019.39 556.94 L 1016.57 563.18 L 1012.10 557.93 L 1008.24 552.65 L 1001.15 542.06 L 997.52 537.00 L 993.54 532.26 L 990.64 529.34 L 987.35 526.62 L 983.65 524.08 L 979.72 521.93 L 975.10 520.02 L 969.72 518.37 L 949.64 504.32 L 949.99 489.06 Z" fill="#ffc300" fill-rule="nonzero" group-id="1,2" id="路径" node-id="14" stroke="none" target-height="74.66998" target-width="74.349976" target-x="949.64" target-y="488.51"></path><path d="M 438.19 626.93 L 435.17 625.47 L 432.58 623.65 L 430.39 621.47 L 428.55 618.90 L 423.25 609.30 L 418.53 599.64 L 414.39 589.89 L 410.82 580.06 L 407.79 570.13 L 405.31 560.08 L 403.37 549.90 L 401.97 539.58 L 401.11 529.10 L 400.80 518.45 L 400.99 516.90 L 401.46 516.08 L 402.14 515.73 L 403.18 515.80 L 404.82 516.52 L 405.31 517.10 L 405.97 518.55 L 406.82 521.44 L 407.86 526.05 L 409.14 532.62 L 412.03 548.16 L 413.74 556.87 L 415.73 566.16 L 417.96 575.49 L 420.49 584.71 L 423.38 593.71 L 426.56 601.92 L 428.99 607.20 L 431.54 611.84 L 434.19 615.89 L 436.46 618.77 L 438.78 621.17 L 441.17 623.14 L 443.62 624.71 L 446.27 625.89 L 449.04 626.58 L 451.97 626.79 L 455.10 626.48 L 458.07 625.70 L 461.32 624.32 L 464.91 622.23 L 468.89 619.30 L 471.26 617.04 L 473.39 614.43 L 475.28 611.43 L 476.93 608.00 L 478.65 603.26 L 480.03 597.98 L 481.04 592.11 L 481.67 586.18 L 482.00 579.94 L 482.04 573.35 L 481.63 563.46 L 480.75 553.45 L 479.50 543.52 L 478.01 534.12 L 476.32 525.02 L 474.65 517.09 L 471.48 504.08 L 471.57 503.01 L 472.05 502.07 L 472.85 501.34 L 473.95 500.89 L 475.15 500.81 L 476.25 501.11 L 477.17 501.73 L 477.81 502.63 L 479.28 507.76 L 481.13 515.16 L 482.90 523.24 L 484.72 532.84 L 486.31 542.85 L 487.65 553.61 L 488.57 564.51 L 488.97 575.39 L 488.89 582.64 L 488.47 589.54 L 487.72 596.11 L 486.54 602.60 L 484.95 608.44 L 482.97 613.69 L 481.08 617.47 L 478.91 620.76 L 476.48 623.61 L 473.76 626.07 L 470.75 628.08 L 467.35 629.61 L 463.51 630.65 L 459.15 631.17 L 454.91 631.12 L 450.07 630.46 L 444.53 629.10 L 438.19 626.93 Z" fill="#260e24" fill-rule="nonzero" group-id="1,2" id="路径" node-id="15" stroke="none" target-height="130.35999" target-width="88.17001" target-x="400.8" target-y="500.81"></path><path d="M 933.66 500.63 L 935.60 502.55 L 937.76 503.93 L 940.16 504.82 L 942.89 505.22 L 946.02 505.08 L 949.64 504.32 L 969.72 518.37 L 962.21 517.23 L 954.50 516.61 L 946.57 516.53 L 938.38 516.99 L 929.92 518.02 L 921.15 519.65 L 912.07 521.90 L 910.29 520.61 L 908.93 519.09 L 907.96 517.34 L 907.35 515.31 L 907.12 512.92 L 907.34 510.10 L 907.81 508.17 L 908.67 506.50 L 909.95 505.03 L 911.71 503.76 L 914.84 502.19 L 918.15 501.03 L 921.65 500.28 L 925.37 499.95 L 929.37 500.05 L 933.66 500.63 Z" fill="#ffffff" fill-rule="nonzero" group-id="1,2" id="路径" node-id="16" stroke="none" target-height="21.950012" target-width="62.599976" target-x="907.12" target-y="499.95"></path><path d="M 969.72 518.37 L 975.10 520.02 L 979.72 521.93 L 983.65 524.08 L 987.35 526.62 L 990.64 529.34 L 993.54 532.26 L 997.52 537.00 L 1001.15 542.06 L 1008.24 552.65 L 1012.10 557.93 L 1016.57 563.18 L 1011.75 570.88 L 1008.75 570.31 L 1006.09 569.28 L 1003.70 567.79 L 1001.55 565.80 L 999.61 563.26 L 998.51 561.99 L 997.36 561.47 L 996.06 561.56 L 994.44 562.37 L 984.80 569.04 L 982.46 570.41 L 980.78 570.96 L 979.55 570.96 L 978.61 570.53 L 977.87 569.66 L 977.31 568.16 L 977.03 565.74 L 976.78 558.43 L 976.50 553.79 L 976.00 548.61 L 975.22 543.41 L 974.08 538.46 L 973.03 535.27 L 971.79 532.51 L 970.35 530.15 L 968.57 528.12 L 966.53 526.70 L 964.18 525.84 L 961.01 525.37 L 959.21 525.47 L 958.28 525.88 L 957.86 526.50 L 957.86 527.44 L 958.49 528.93 L 960.17 531.30 L 962.73 534.76 L 964.73 538.27 L 966.20 541.84 L 967.18 545.50 L 967.68 549.27 L 967.69 553.20 L 967.19 557.31 L 966.15 561.65 L 965.56 562.62 L 964.67 563.33 L 963.58 563.73 L 962.34 563.76 L 961.17 563.41 L 960.25 562.75 L 959.62 561.84 L 959.36 560.77 L 959.12 555.55 L 958.29 550.69 L 956.89 546.12 L 954.92 541.81 L 952.35 537.72 L 949.15 533.82 L 945.27 530.11 L 940.62 526.56 L 938.72 525.58 L 937.27 525.36 L 936.10 525.71 L 935.09 526.65 L 934.20 528.41 L 933.39 530.41 L 933.08 531.84 L 933.29 532.98 L 934.00 533.96 L 935.36 534.83 L 946.60 540.37 L 948.94 541.76 L 950.25 543.00 L 950.86 544.14 L 950.93 545.26 L 950.48 546.46 L 949.35 547.83 L 947.23 549.44 L 944.54 550.80 L 941.16 551.77 L 939.21 551.95 L 937.41 551.77 L 935.72 551.23 L 934.11 550.33 L 929.34 546.79 L 925.18 543.08 L 921.57 539.22 L 918.48 535.18 L 915.88 530.96 L 913.75 526.54 L 912.07 521.90 L 921.15 519.65 L 929.92 518.02 L 938.38 516.99 L 946.57 516.53 L 954.50 516.61 L 962.21 517.23 L 969.72 518.37 Z" fill="#ff6e00" fill-rule="nonzero" group-id="1,2" id="路径" node-id="17" stroke="none" target-height="54.429993" target-width="104.5" target-x="912.07" target-y="516.53"></path><g node-id="32"><path d="M 777.27 539.72 L 777.69 542.51 L 777.66 545.34 L 777.16 548.25 L 776.17 551.28 L 774.29 555.07 L 771.65 558.98 L 768.13 563.04 L 764.23 566.74 L 759.62 570.45 L 754.21 574.17 L 748.59 577.51 L 742.36 580.73 L 735.48 583.81 L 728.45 586.51 L 720.96 588.95 L 712.98 591.11 L 704.89 592.86 L 697.12 594.14 L 689.64 594.98 L 682.11 595.42 L 675.10 595.43 L 668.57 595.05 L 662.06 594.23 L 656.26 593.06 L 651.09 591.57 L 646.10 589.59 L 641.95 587.33 L 638.54 584.83 L 636.27 582.60 L 634.49 580.24 L 633.15 577.74 L 632.24 575.07 L 631.82 572.28 L 631.85 569.45 L 632.35 566.54 L 633.34 563.51 L 635.22 559.72 L 637.86 555.81 L 641.38 551.75 L 645.28 548.05 L 649.89 544.34 L 655.30 540.62 L 660.93 537.27 L 667.16 534.06 L 674.04 530.98 L 681.06 528.28 L 688.55 525.84 L 696.54 523.68 L 704.62 521.92 L 712.39 520.64 L 719.88 519.81 L 727.40 519.37 L 734.41 519.36 L 740.95 519.74 L 747.46 520.55 L 753.26 521.72 L 758.42 523.21 L 763.41 525.20 L 767.56 527.46 L 770.97 529.96 L 773.25 532.19 L 775.03 534.54 L 776.36 537.04 L 777.27 539.72 Z" fill="#ff3900" fill-rule="nonzero" group-id="1,2,3" id="椭圆形" node-id="18" stroke="none" target-height="76.07001" target-width="145.87" target-x="631.82" target-y="519.36"></path></g><g node-id="33"><path d="M 351.08 625.32 L 351.49 628.09 L 351.45 630.90 L 350.94 633.79 L 349.93 636.80 L 348.04 640.57 L 345.38 644.45 L 341.84 648.49 L 337.91 652.17 L 333.28 655.85 L 327.85 659.55 L 322.20 662.88 L 315.94 666.07 L 309.04 669.13 L 301.98 671.82 L 294.47 674.25 L 286.46 676.40 L 278.36 678.15 L 270.56 679.42 L 263.06 680.26 L 255.52 680.69 L 248.50 680.71 L 241.95 680.33 L 235.43 679.53 L 229.62 678.37 L 224.46 676.89 L 219.46 674.92 L 215.31 672.68 L 211.91 670.19 L 209.64 667.98 L 207.86 665.64 L 206.54 663.15 L 205.64 660.50 L 205.23 657.73 L 205.27 654.92 L 205.78 652.02 L 206.78 649.02 L 208.68 645.25 L 211.34 641.36 L 214.88 637.33 L 218.80 633.65 L 223.44 629.96 L 228.87 626.27 L 234.52 622.94 L 240.78 619.74 L 247.68 616.68 L 254.73 614.00 L 262.25 611.57 L 270.26 609.41 L 278.36 607.67 L 286.16 606.39 L 293.66 605.56 L 301.20 605.13 L 308.22 605.11 L 314.77 605.49 L 321.29 606.29 L 327.10 607.45 L 332.26 608.93 L 337.26 610.90 L 341.41 613.14 L 344.81 615.63 L 347.08 617.84 L 348.86 620.18 L 350.18 622.66 L 351.08 625.32 Z" fill="#ff3900" fill-rule="nonzero" group-id="1,2,4" id="椭圆形" node-id="19" stroke="none" target-height="75.60004" target-width="146.26" target-x="205.23" target-y="605.11"></path></g><path d="M 425.07 722.48 L 402.94 714.61 L 401.10 713.73 L 399.78 712.66 L 398.90 711.40 L 398.40 709.91 L 398.30 708.11 L 401.51 651.02 L 401.79 649.25 L 402.34 648.07 L 403.13 647.32 L 404.20 646.91 L 405.66 646.87 L 407.67 647.32 L 508.07 679.12 L 509.95 679.96 L 511.04 680.94 L 511.57 682.06 L 511.59 683.41 L 511.01 685.14 L 502.63 702.35 L 493.78 719.31 L 484.46 736.04 L 474.66 752.54 L 464.37 768.81 L 453.60 784.87 L 442.33 800.71 L 430.57 816.34 L 418.29 831.76 L 417.15 832.91 L 415.84 833.82 L 414.34 834.51 L 411.93 835.04 L 409.37 834.96 L 406.93 834.24 L 404.89 832.99 L 403.74 831.88 L 402.86 830.62 L 402.23 829.19 L 399.46 819.87 L 397.24 810.58 L 395.57 801.30 L 394.43 792.03 L 393.82 782.76 L 393.73 773.46 L 394.18 764.12 L 395.16 754.73 L 396.68 745.27 L 398.75 735.73 L 399.39 734.11 L 400.39 732.92 L 401.77 732.10 L 403.66 731.63 L 424.27 728.90 L 428.49 728.11 L 430.50 727.35 L 431.24 726.68 L 431.31 726.04 L 430.74 725.24 L 428.98 724.10 L 425.07 722.48 Z" fill="#ffffff" fill-rule="nonzero" group-id="1,2" id="路径" node-id="20" stroke="none" target-height="188.16998" target-width="117.859985" target-x="393.73" target-y="646.87"></path><path d="M 28.57 909.57 L 31.63 900.96 L 35.24 892.20 L 39.44 883.27 L 44.03 874.53 L 49.10 865.83 L 54.65 857.16 L 60.57 848.73 L 66.86 840.52 L 73.54 832.53 L 80.56 824.85 L 87.85 817.57 L 95.41 810.68 L 103.31 804.19 L 111.37 798.27 L 119.60 792.90 L 120.60 792.42 L 121.68 792.17 L 122.79 792.14 L 123.90 792.34 L 124.93 792.77 L 125.80 793.38 L 126.51 794.16 L 127.01 795.07 L 131.39 805.42 L 136.27 815.47 L 141.64 825.21 L 147.52 834.68 L 153.91 843.87 L 160.82 852.80 L 168.26 861.48 L 176.26 869.91 L 184.83 878.09 L 185.40 879.05 L 185.36 880.12 L 184.74 881.02 L 183.67 881.54 L 31.16 912.06 L 30.04 912.00 L 29.10 911.46 L 28.56 910.57 L 28.57 909.57 L 28.57 909.57 Z" fill="#ffffff" fill-rule="nonzero" group-id="1,2" id="路径" node-id="21" stroke="none" target-height="119.91998" target-width="156.84" target-x="28.56" target-y="792.14"></path><path d="M 220.44 986.41 L 211.52 990.42 L 209.99 989.84 L 207.63 989.44 L 204.17 989.30 L 198.79 989.56 L 191.86 990.32 L 184.56 991.40 L 176.41 992.81 L 159.67 996.13 L 143.47 999.62 L 129.65 1002.62 L 120.04 1004.48 L 117.81 994.44 L 129.73 993.45 L 141.45 991.90 L 152.98 989.79 L 164.34 987.11 L 175.55 983.87 L 186.62 980.07 L 188.78 980.02 L 190.66 979.55 L 192.33 978.70 L 193.87 977.42 L 194.62 976.31 L 194.83 975.31 L 194.57 974.32 L 193.76 973.25 L 192.15 972.04 L 162.52 954.37 L 175.46 952.04 L 177.32 951.46 L 178.57 950.55 L 179.37 949.30 L 179.75 947.63 L 182.16 907.80 L 184.02 907.26 L 185.66 907.20 L 187.15 907.56 L 188.63 908.44 L 189.59 909.43 L 190.15 910.54 L 190.32 911.82 L 190.10 913.34 L 188.55 920.32 L 187.68 926.95 L 187.47 933.27 L 187.88 939.31 L 188.88 945.11 L 190.47 950.72 L 192.67 956.16 L 195.48 961.45 L 198.95 966.63 L 203.12 971.71 L 208.05 976.69 L 213.79 981.59 L 220.44 986.41 Z" fill="#ff3900" fill-rule="nonzero" group-id="1,2" id="路径" node-id="22" stroke="none" target-height="97.27997" target-width="102.630005" target-x="117.81" target-y="907.2"></path><path d="M 162.52 954.37 L 192.15 972.04 L 193.76 973.25 L 194.57 974.32 L 194.83 975.31 L 194.62 976.31 L 193.87 977.42 L 192.33 978.70 L 190.66 979.55 L 188.78 980.02 L 186.62 980.07 L 187.69 978.06 L 187.89 977.40 L 187.68 977.04 L 186.98 976.85 L 181.23 976.63 L 175.44 976.77 L 169.58 977.31 L 160.82 978.62 L 152.03 980.41 L 134.66 984.62 L 126.09 986.68 L 117.81 988.42 L 115.58 978.38 L 120.18 979.00 L 124.53 979.12 L 128.65 978.78 L 132.59 978.00 L 136.38 976.77 L 138.74 975.64 L 139.75 974.75 L 140.01 974.01 L 139.73 973.27 L 138.69 972.40 L 136.29 971.31 L 132.36 970.17 L 128.33 969.53 L 124.15 969.38 L 119.79 969.75 L 115.23 970.67 L 112.55 955.82 L 112.46 954.15 L 112.82 952.91 L 113.57 951.97 L 114.79 951.27 L 116.65 950.84 L 125.18 950.07 L 133.31 949.88 L 141.08 950.23 L 148.52 951.11 L 155.66 952.49 L 162.52 954.37 Z" fill="#ff6e00" fill-rule="nonzero" group-id="1,2" id="路径" node-id="23" stroke="none" target-height="38.539978" target-width="82.37" target-x="112.46" target-y="949.88"></path><path d="M 115.23 970.67 L 119.79 969.75 L 124.15 969.38 L 128.33 969.53 L 132.36 970.17 L 136.29 971.31 L 138.69 972.40 L 139.73 973.27 L 140.01 974.01 L 139.75 974.75 L 138.74 975.64 L 136.38 976.77 L 132.59 978.00 L 128.65 978.78 L 124.53 979.12 L 120.18 979.00 L 115.58 978.38 L 115.23 970.67 Z" fill="#ffc300" fill-rule="nonzero" group-id="1,2" id="路径" node-id="24" stroke="none" target-height="9.73999" target-width="24.779991" target-x="115.23" target-y="969.38"></path><path d="M 186.62 980.07 L 175.55 983.87 L 164.34 987.11 L 152.98 989.79 L 141.45 991.90 L 129.73 993.45 L 117.81 994.44 L 117.81 988.42 L 126.09 986.68 L 134.66 984.62 L 152.03 980.41 L 160.82 978.62 L 169.58 977.31 L 175.44 976.77 L 181.23 976.63 L 186.98 976.85 L 187.68 977.04 L 187.89 977.40 L 187.69 978.06 L 186.62 980.07 Z" fill="#ffc300" fill-rule="nonzero" group-id="1,2" id="路径" node-id="25" stroke="none" target-height="17.809998" target-width="70.08" target-x="117.81" target-y="976.63"></path><path d="M 211.52 990.42 L 130.31 1023.43 L 128.48 1023.94 L 126.98 1023.94 L 125.72 1023.50 L 124.61 1022.62 L 123.61 1021.18 L 121.92 1017.26 L 120.77 1013.19 L 120.14 1008.94 L 120.04 1004.48 L 129.65 1002.62 L 143.47 999.62 L 159.67 996.13 L 176.41 992.81 L 184.56 991.40 L 191.86 990.32 L 198.79 989.56 L 204.17 989.30 L 207.63 989.44 L 209.99 989.84 L 211.52 990.42 Z" fill="#ffc300" fill-rule="nonzero" group-id="1,2" id="路径" node-id="26" stroke="none" target-height="34.640015" target-width="91.48" target-x="120.04" target-y="989.3"></path></g></g></svg>